<svg width="46" height="56" viewBox="8 2 46 56" fill="none" xmlns="http://www.w3.org/2000/svg">
  <!-- Body -->
  <rect x="12" y="6" width="38" height="48" rx="9" fill="#FF2D55"/>
  <!-- Dark fold bg -->
  <path d="M38 6 L50 6 L50 20 L38 20 Z" fill="#aa0f2e"/>
  <!-- Fold highlight -->
  <path d="M38 6 L50 20 L38 20 Z" fill="#ff6b85"/>
  <!-- Crease -->
  <line x1="38" y1="6" x2="38" y2="20" stroke="rgba(0,0,0,0.18)" stroke-width="0.8"/>
  <!-- Top sheen -->
  <rect x="12" y="6" width="38" height="4" rx="9" fill="rgba(255,255,255,0.1)"/>
  <!-- Film strip top bar -->
  <rect x="14" y="24" width="34" height="5" rx="1.5" fill="rgba(0,0,0,0.2)"/>
  <!-- Film holes top -->
  <rect x="16"  y="25.2" width="3.5" height="2.6" rx="1" fill="rgba(255,255,255,0.38)"/>
  <rect x="22"  y="25.2" width="3.5" height="2.6" rx="1" fill="rgba(255,255,255,0.38)"/>
  <rect x="28"  y="25.2" width="3.5" height="2.6" rx="1" fill="rgba(255,255,255,0.38)"/>
  <rect x="34"  y="25.2" width="3.5" height="2.6" rx="1" fill="rgba(255,255,255,0.38)"/>
  <rect x="40"  y="25.2" width="3.5" height="2.6" rx="1" fill="rgba(255,255,255,0.38)"/>
  <!-- Film strip bottom bar -->
  <rect x="14" y="43" width="34" height="5" rx="1.5" fill="rgba(0,0,0,0.2)"/>
  <!-- Film holes bottom -->
  <rect x="16"  y="44.2" width="3.5" height="2.6" rx="1" fill="rgba(255,255,255,0.38)"/>
  <rect x="22"  y="44.2" width="3.5" height="2.6" rx="1" fill="rgba(255,255,255,0.38)"/>
  <rect x="28"  y="44.2" width="3.5" height="2.6" rx="1" fill="rgba(255,255,255,0.38)"/>
  <rect x="34"  y="44.2" width="3.5" height="2.6" rx="1" fill="rgba(255,255,255,0.38)"/>
  <rect x="40"  y="44.2" width="3.5" height="2.6" rx="1" fill="rgba(255,255,255,0.38)"/>
  <!-- Screen area -->
  <rect x="14" y="29" width="34" height="14" fill="rgba(0,0,0,0.15)"/>
  <!-- Play triangle -->
  <polygon points="25,31 25,41 39,36" fill="rgba(255,255,255,0.9)"/>
</svg>
