<svg width="46" height="56" viewBox="8 2 46 56" fill="none" xmlns="http://www.w3.org/2000/svg">
  <rect x="12" y="6" width="38" height="48" rx="6" fill="#F5C518"/>
  <path d="M38 6 L50 6 L50 20 L38 20 Z" fill="#b08800"/>
  <path d="M38 6 L50 20 L38 20 Z" fill="#ffe566"/>
  <line x1="38" y1="6" x2="38" y2="20" stroke="rgba(0,0,0,0.15)" stroke-width="0.8"/>
  <!-- Zipper track center column -->
  <rect x="27" y="20" width="8" height="30" rx="0" fill="rgba(0,0,0,0.08)"/>
  <!-- Zipper teeth -->
  <rect x="25" y="22" width="4" height="3.5" rx="1" fill="rgba(0,0,0,0.3)"/>
  <rect x="33" y="22" width="4" height="3.5" rx="1" fill="rgba(0,0,0,0.3)"/>
  <rect x="25" y="28" width="4" height="3.5" rx="1" fill="rgba(0,0,0,0.25)"/>
  <rect x="33" y="28" width="4" height="3.5" rx="1" fill="rgba(0,0,0,0.25)"/>
  <rect x="25" y="34" width="4" height="3.5" rx="1" fill="rgba(0,0,0,0.2)"/>
  <rect x="33" y="34" width="4" height="3.5" rx="1" fill="rgba(0,0,0,0.2)"/>
  <rect x="25" y="40" width="4" height="3.5" rx="1" fill="rgba(0,0,0,0.15)"/>
  <rect x="33" y="40" width="4" height="3.5" rx="1" fill="rgba(0,0,0,0.15)"/>
  <!-- Zipper pull -->
  <rect x="27" y="46" width="8" height="5" rx="2.5" fill="rgba(0,0,0,0.35)"/>
  <rect x="12" y="6" width="38" height="4" rx="6" fill="rgba(255,255,255,0.15)"/>
</svg>
